<?xml version="1.0" encoding="UTF-8" standalone="no"?>
<svg
   width="2500"
   height="2034"
   viewBox="0.499 48.118 511.002 415.763"
   version="1.1"
   id="svg4"
   sodipodi:docname="blender.svg"
   inkscape:version="1.2 (dc2aedaf03, 2022-05-15)"
   xmlns:inkscape="http://www.inkscape.org/namespaces/inkscape"
   xmlns:sodipodi="http://sodipodi.sourceforge.net/DTD/sodipodi-0.dtd"
   xmlns="http://www.w3.org/2000/svg"
   xmlns:svg="http://www.w3.org/2000/svg">
  <defs
     id="defs8" />
  <sodipodi:namedview
     id="namedview6"
     pagecolor="#ffffff"
     bordercolor="#000000"
     borderopacity="0.25"
     inkscape:showpageshadow="2"
     inkscape:pageopacity="0.0"
     inkscape:pagecheckerboard="0"
     inkscape:deskcolor="#d1d1d1"
     showgrid="false"
     inkscape:zoom="0.50491642"
     inkscape:cx="1249.7118"
     inkscape:cy="1016.0097"
     inkscape:window-width="2560"
     inkscape:window-height="1371"
     inkscape:window-x="0"
     inkscape:window-y="0"
     inkscape:window-maximized="1"
     inkscape:current-layer="svg4" />
  <path
     d="m 461.67492,274.72922 c -2.42759,-16.71297 -8.34431,-32.56245 -17.59147,-47.10322 -8.06415,-12.6902 -18.41173,-23.97663 -30.76261,-33.56933 l 0.0332,-0.0301 -129.71538,-97.471069 a 3.699675,3.6195465 0 0 0 -0.29231,-0.227361 c -4.31264,-3.232162 -10.15164,-5.010643 -16.43518,-5.010643 -6.29163,0 -12.35896,1.782442 -17.07567,5.020942 -5.07136,3.465861 -7.97021,8.064561 -8.17265,12.959541 -0.18543,4.56702 2.04135,8.96133 6.28678,12.38679 8.34836,6.44452 16.67809,13.02926 25.01917,19.62192 8.0949,6.40094 16.43597,12.99282 24.73656,19.4104 l -158.88035,-0.10536 c -18.16963,0 -30.54155,8.34738 -33.08655,22.32252 -1.11824,6.1213 0.85508,12.85181 5.26652,18.00662 4.68026,5.46458 11.47555,8.47888 19.1332,8.47888 l 12.112,0.008 c 16.73235,0 33.53838,-0.0404 50.32174,-0.08 l 16.0052,-0.0364 -144.197442,104.37032 -0.572482,0.40957 c -8.054425,6.03971 -13.327413,14.5075 -14.46509,23.23037 -0.862366,6.6085 0.713377,12.64742 4.558803,17.47031 4.583095,5.74977 11.738715,8.91222 20.150233,8.91222 8.263336,0 16.695097,-3.06343 23.752739,-8.64128 L 175.6728,292.71689 c -0.3328,3.04441 -0.73686,7.51081 -0.6907,10.75248 0.0875,5.13265 1.7717,15.43121 4.43815,23.79204 5.50942,17.18275 14.78979,32.90389 27.58197,46.71029 13.31041,14.36412 29.52128,25.75353 48.17917,33.84423 19.72513,8.53513 40.92963,12.86765 63.02646,12.86765 h 0.20487 c 22.16728,-0.0523 43.43899,-4.45372 63.22809,-13.08629 18.68866,-8.18656 34.89224,-19.62192 48.15245,-33.98365 12.77598,-13.87691 22.04339,-29.6242 27.5423,-46.79268 a 122.37025,119.71993 0 0 0 5.19525,-26.14487 c 0.67937,-8.57949 0.38705,-17.30949 -0.85589,-25.94681 z m -141.85165,82.35597 c -48.69821,0 -88.18895,-34.56117 -88.18895,-77.19719 0,-42.63126 39.49155,-77.19243 88.18895,-77.19243 48.69904,0 88.18571,34.56117 88.18571,77.19243 0.002,42.63602 -39.48667,77.19719 -88.18571,77.19719 z m 50.85697,-83.98076 c 0.71824,12.72505 -4.47701,24.54067 -13.60029,33.28731 -9.28036,8.91062 -22.52276,14.5075 -37.33117,14.5075 -14.80194,0 -28.04675,-5.59688 -37.33036,-14.5075 -9.11923,-8.74664 -14.30395,-20.56067 -13.58976,-33.27702 0.6996,-12.36064 6.86249,-23.27157 16.14528,-30.99706 9.12814,-7.59638 21.38508,-12.23073 34.77403,-12.23073 13.39057,0 25.64428,4.63593 34.77322,12.23073 9.28765,7.72549 15.45216,18.6285 16.15905,30.98677 z"
     id="path2"
     style="stroke-width:0.800918" />
</svg>
