<?xml version="1.0" encoding="UTF-8" standalone="no"?>
<svg
   id="Layer_1"
   data-name="Layer 1"
   viewBox="0 0 200 200"
   version="1.1"
   sodipodi:docname="Opensource.svg"
   inkscape:version="1.2 (dc2aedaf03, 2022-05-15)"
   xmlns:inkscape="http://www.inkscape.org/namespaces/inkscape"
   xmlns:sodipodi="http://sodipodi.sourceforge.net/DTD/sodipodi-0.dtd"
   xmlns="http://www.w3.org/2000/svg"
   xmlns:svg="http://www.w3.org/2000/svg">
  <defs
     id="defs60" />
  <sodipodi:namedview
     id="namedview58"
     pagecolor="#ffffff"
     bordercolor="#000000"
     borderopacity="0.25"
     inkscape:showpageshadow="2"
     inkscape:pageopacity="0.0"
     inkscape:pagecheckerboard="0"
     inkscape:deskcolor="#d1d1d1"
     showgrid="false"
     inkscape:zoom="5.135"
     inkscape:cx="99.902629"
     inkscape:cy="99.902629"
     inkscape:window-width="2560"
     inkscape:window-height="1371"
     inkscape:window-x="0"
     inkscape:window-y="0"
     inkscape:window-maximized="1"
     inkscape:current-layer="OhWZMs.tif" />
  <g
     id="OhWZMs.tif">
    <path
       d="M 7.1378032,101.84009 C 7.8072742,74.060196 18.907104,50.891176 41.40133,33.059055 a 93.029692,88.49827 0 0 1 65.13953,-20.035662 93.5251,88.969548 0 0 1 85.45128,69.596221 89.909957,85.530496 0 0 1 2.08875,23.054386 93.578658,89.020497 0 0 1 -59.44902,78.88166 3.7356482,3.553687 0 0 1 -5.35577,-2.26723 q -10.35002,-25.57635 -20.65988,-51.17818 c -0.97742,-2.42008 -0.16067,-4.15234 2.35654,-5.17132 a 26.952903,25.640043 0 0 0 16.84389,-20.01019 27.461701,26.124058 0 1 0 -37.664441,19.99745 7.1231716,6.7762061 0 0 1 1.472836,0.67508 3.6285329,3.4517892 0 0 1 1.338942,4.24149 q -2.169086,5.42606 -4.364951,10.82665 l -16.40204,40.5426 a 3.7490377,3.5664242 0 0 1 -2.918893,2.67482 4.6862971,4.4580303 0 0 1 -2.31637,-0.21653 A 91.69075,87.224547 0 0 1 36.166067,166.07394 94.020509,89.440825 0 0 1 7.1378032,101.84009 Z"
       id="path4"
       style="stroke-width:1.30593;fill:#008000" />
  </g>
</svg>
